Coordinates
version=1
nRows=32
nColumns=18
inDegrees=yes

Units are S.I. units (second, meters, Newtons, ...)
Angles are in degrees.

endheader
time	pelvis_tilt	pelvis_list	pelvis_rotation	pelvis_tx	pelvis_ty	pelvis_tz	hip_flexion_r	hip_adduction_r	hip_rotation_r	knee_angle_r	ankle_angle_r	hip_flexion_l	hip_adduction_l	hip_rotation_l	knee_angle_l	ankle_angle_l	lumbar_extension
      1.01000000	      0.43144942	     -1.33793597	      1.57624529	     -0.36790708	      0.91574395	     -0.23926989	     26.94403353	      3.76623092	      0.00000000	    -31.18399072	      8.66381211	    -15.51739073	      3.97181346	      0.00000000	      8.87745198	      8.93412140	     -5.00000214
      1.02000000	      0.36674144	     -1.31085790	      1.62447170	     -0.35728698	      0.91387352	     -0.23947000	     26.91506454	      3.71949841	      0.00000000	    -27.69174349	      7.08633274	    -16.44256592	      3.98717366	      0.00000000	      9.34356674	      9.23639775	     -5.00000214
      1.03000000	      0.30173860	     -1.26945372	      1.72352332	     -0.34661515	      0.91200182	     -0.23971038	     26.76952387	      3.64788934	      0.00000000	    -24.17243239	      5.85057819	    -17.20457013	      4.00306241	      0.00000000	      9.47643385	      9.62566358	     -5.00000214
      1.04000000	      0.25380315	     -1.22454832	      1.83760646	     -0.33576396	      0.91011180	     -0.23990387	     26.53357466	      3.58388314	      0.00000000	    -20.73001571	      4.67988331	    -17.94487139	      4.01143404	      0.00000000	      9.51375989	     10.05332469	     -5.00000214
      1.05000000	      0.20781992	     -1.18400383	      2.01369608	     -0.32477232	      0.90822878	     -0.24007391	     26.24223469	      3.52321342	      0.00000000	    -17.42896212	      3.97596169	    -18.61491455	      3.98521661	      0.00000000	      9.41049057	     10.37209023	     -5.00000214
      1.06000000	      0.16325010	     -1.09969364	      2.18970263	     -0.31373495	      0.90643316	     -0.24041710	     25.91654512	      3.40982921	      0.00000000	    -14.27086218	      2.27994494	    -19.21822124	      4.02272857	      0.00000000	      9.15866719	     10.87126284	     -5.00000214
      1.07000000	      0.14955824	     -1.00554430	      2.38364595	     -0.30236831	      0.90465516	     -0.24077158	     25.57086124	      3.29101277	      0.00000000	    -11.46965670	      1.94443954	    -19.89929485	      4.05640274	      0.00000000	      8.96405987	     11.05519380	     -5.00000214
      1.08000000	      0.12280316	     -0.92465405	      2.59428702	     -0.29093409	      0.90303157	     -0.24107802	     25.19861939	      3.18721483	      0.00000000	     -8.83946208	      0.51657412	    -20.53976441	      4.05869596	      0.00000000	      8.71733808	     11.33520418	     -5.00000214
      1.09000000	      0.13307226	     -0.81763123	      2.78987621	     -0.27918044	      0.90152514	     -0.24143053	     24.85449224	      3.06232782	      0.00000000	     -6.73560369	      0.30006735	    -21.23931078	      4.08670850	      0.00000000	      8.46343078	     11.38877876	     -5.00000214
      1.10000000	      0.15460963	     -0.72673865	      2.95422142	     -0.26724436	      0.90023320	     -0.24163652	     24.51453989	      2.97349933	      0.00000000	     -4.99361262	     -0.30949857	    -21.95041288	      4.08383156	      0.00000000	      8.19770177	     11.36941514	     -5.00000214
      1.11000000	      0.17738097	     -0.61500393	      3.10016584	     -0.25516727	      0.89909866	     -0.24183771	     24.24177672	      2.86789745	      0.00000000	     -3.76557227	     -0.46929829	    -22.61821389	      4.09456497	      0.00000000	      7.82297108	     11.27725065	     -5.00000214
      1.12000000	      0.22264513	     -0.54659237	      3.21191240	     -0.24284213	      0.89819453	     -0.24175034	     23.94553368	      2.84771228	      0.00000000	     -2.89628679	     -0.78808956	    -23.28576525	      4.02702948	      0.00000000	      7.37882451	     11.05556126	     -5.00000214
      1.13000000	      0.26887387	     -0.47306788	      3.26985973	     -0.23034973	      0.89743982	     -0.24159284	     23.69813127	      2.84578624	      0.00000000	     -2.49695609	     -0.94561402	    -23.88249402	      3.96844890	      0.00000000	      6.77617259	     10.76405235	     -5.00000214
      1.14000000	      0.32491244	     -0.40786008	      3.32701439	     -0.21767859	      0.89682336	     -0.24132033	     23.46811279	      2.87704194	      0.00000000	     -2.52457916	     -1.02616302	    -24.42243056	      3.87918781	      0.00000000	      6.04415791	     10.42028777	     -5.00000214
      1.15000000	      0.42850177	     -0.34237542	      3.32543681	     -0.20459686	      0.89633395	     -0.24093554	     23.18632492	      2.94601230	      0.00000000	     -2.93076370	     -1.08995207	    -25.05409037	      3.79850359	      0.00000000	      5.36535547	     10.29175708	     -5.00000214
      1.16000000	      0.46251828	     -0.28151801	      3.36583486	     -0.19168466	      0.89597967	     -0.24049556	     23.00591462	      3.01900493	      0.00000000	     -3.67747391	     -1.22579001	    -25.31722288	      3.68616358	      0.00000000	      4.17110029	      9.54849219	     -5.00000214
      1.17000000	      0.54013559	     -0.22587734	      3.38558205	     -0.17841976	      0.89575899	     -0.23997350	     22.78420042	      3.11635548	      0.00000000	     -4.71173564	     -1.49110109	    -25.69635653	      3.56509064	      0.00000000	      3.12181554	      8.92507767	     -5.00000214
      1.18000000	      0.61907252	     -0.21696131	      3.36215118	     -0.16501653	      0.89569264	     -0.23914572	     22.56009655	      3.29498143	      0.00000000	     -5.87851883	     -1.79515164	    -26.00040136	      3.38930206	      0.00000000	      1.94750282	      8.41138681	     -5.00000214
      1.19000000	      0.64827819	     -0.14338871	      3.32795078	     -0.15178354	      0.89588504	     -0.23853042	     22.53364678	      3.37141009	      0.00000000	     -7.36188193	     -2.17474762	    -26.08137784	      3.30026068	      0.00000000	      0.52066010	      7.63932863	     -5.00000214
      1.20000000	      0.66523796	     -0.07053070	      3.23665531	     -0.13853072	      0.89642651	     -0.23789428	     22.61740620	      3.44226888	      0.00000000	     -9.03955442	     -2.37905011	    -26.03970605	      3.24355666	      0.00000000	     -1.04785527	      6.65525526	     -5.00000214
      1.21000000	      0.66252779	     -0.06093298	      3.10490266	     -0.12530765	      0.89729379	     -0.23696304	     22.88877181	      3.59672617	      0.00000000	    -11.03258385	     -2.17640183	    -25.82220402	      3.12359436	      0.00000000	     -2.81881037	      5.40991756	     -5.00000214
      1.22000000	      0.65875191	     -0.04773025	      2.96861421	     -0.11199462	      0.89847250	     -0.23607842	     23.25372914	      3.72812574	      0.00000000	    -13.26009518	     -1.73208823	    -25.42205010	      3.01850682	      0.00000000	     -4.85293497	      4.06553492	     -5.00000214
      1.23000000	      0.72532351	      0.00615228	      2.74659868	     -0.09824313	      0.89985524	     -0.23536569	     23.57463581	      3.82322890	      0.00000000	    -15.70356810	     -0.10488202	    -25.09722614	      3.02369369	      0.00000000	     -6.79541857	      1.81728120	     -5.00000214
      1.24000000	      0.76574948	      0.08466787	      2.59711567	     -0.08467067	      0.90139550	     -0.23490159	     23.74673835	      3.84978586	      0.00000000	    -17.81104250	      0.70152665	    -24.38383219	      3.04923186	      0.00000000	     -9.32258562	     -0.03181644	     -5.00000214
      1.25000000	      0.89097534	      0.15721939	      2.30787388	     -0.07064412	      0.90310099	     -0.23430718	     23.52741520	      3.92941825	      0.00000000	    -19.46806944	      2.39946230	    -23.80621551	      3.14790825	      0.00000000	    -11.61854776	     -2.97387642	     -5.00000214
      1.26000000	      0.98243696	      0.23714475	      2.06046009	     -0.05696578	      0.90486817	     -0.23379557	     23.03692502	      3.97333634	      0.00000000	    -20.50686332	      3.60143446	    -22.85612004	      3.24926263	      0.00000000	    -14.39434074	     -5.75309577	     -5.00000214
      1.27000000	      1.04915433	      0.27271400	      1.86307897	     -0.04355948	      0.90665590	     -0.23313870	     22.28585084	      4.05884019	      0.00000000	    -20.98536384	      4.70439885	    -21.58846219	      3.27478294	      0.00000000	    -17.56135011	     -8.52679649	     -5.00000214
      1.28000000	      1.04632739	      0.30528914	      1.74921007	     -0.03077619	      0.90835689	     -0.23250822	     21.38595946	      4.11714819	      0.00000000	    -20.95829512	      5.47142267	    -19.84600452	      3.26425540	      0.00000000	    -21.35899501	    -10.46193629	     -5.00000214
      1.29000000	      1.01256582	      0.33427823	      1.63205946	     -0.01834980	      0.90992029	     -0.23183578	     20.55271743	      4.17452866	      0.00000000	    -21.01586015	      6.57676963	    -17.89652397	      3.25521613	      0.00000000	    -25.30254801	    -12.92944901	     -5.00000214
      1.30000000	      0.91066279	      0.28665565	      1.68329636	     -0.00651214	      0.91138294	     -0.23102814	     19.61410171	      4.29264633	      0.00000000	    -20.65058718	      7.34713954	    -15.55884256	      3.07865152	      0.00000000	    -29.69748002	    -14.18694108	     -5.00000214
      1.31000000	      0.76820788	      0.19607270	      1.80175727	      0.00492521	      0.91277813	     -0.23013976	     18.62767361	      4.45453030	      0.00000000	    -20.06225565	      8.02647233	    -13.04002370	      2.82932349	      0.00000000	    -34.16873494	    -14.67541338	     -5.00000214
      1.32000000	      0.58601537	      0.08063590	      1.98240717	      0.01595477	      0.91403565	     -0.22925417	     17.68882348	      4.63644683	      0.00000000	    -19.44259443	      8.64915614	    -10.39348902	      2.53601751	      0.00000000	    -38.59928164	    -14.21734283	     -5.00000214
